<svg width="658.667" height="658.667" viewBox="0 -24 494 494" xmlns="http://www.w3.org/2000/svg" xmlns:xlink="http://www.w3.org/1999/xlink" overflow="hidden"><path d="M441.906 0 122.469 0C94.7461 0 72.1914 22.3438 72.1914 49.7188L70.1328 331 7.79297 331C3.375 331 -8.88178e-16 334.906 -8.88178e-16 339.324L-8.88178e-16 378.035C-8.88178e-16 414.273 29 443.91 64 445.535L64 446 333 446 333 445.477C335 445.559 336.211 446 337.586 446L337.777 446C375.105 445.781 405.195 415.355 405 378.027L405 132 486.207 132C490.625 132 494 128 494 123.586L494 52.5586C494.051 23.6914 470.773 0.207031 441.906-2.84217e-14ZM67.5 430 67.4453 430C38.9883 430 16 406.48 16 378.027L16 347 270 347 270 377.895C269.938 395.902 277.051 413.191 289.766 425.941 291.117 427.301 292.531 428 293.977 430ZM389 378.02C389 406.48 366.234 430 337.766 430L337.602 430C308.992 429.793 285.934 406.508 286 377.898L286 339.324C286.023 334.844 282.48 331.156 278 331L86.1328 331 88.1914 49.7734C88.1914 31.168 103.566 16 122.469 16L404.137 16C395.02 26 389 38.6523 389 52.7734ZM478 52.6992 478 116 405 116 405 52.7578C405 32.7344 421.656 16 441.672 16L441.895 16C461.961 16.1992 478.094 32.5703 478 52.6406Z" fill="#2E5EAB"/><path d="M187.855 196.914 229.102 225.113C231.793 226.969 235.352 226.969 238.043 225.113L279.164 196.922C293.449 187.176 304 166.801 304 149.523L304 92.4688C304.086 89.4531 302.422 86.6562 299.734 85.2852L236.934 54.3945C234.73 53.3008 232.145 53.3008 229.941 54.3945L167.258 85.1992C164.57 86.5703 162.91 89.3672 163 92.3828L163 149.523C163 166.801 173.574 187.176 187.855 196.914ZM179 97.375 233.5 70.4844 288 97.4492 288 149.523C288 161.574 280.102 176.902 270.137 183.695L233.406 208.816 196.82 183.699C186.855 176.898 179 161.574 179 149.523Z" fill="#2E5EAB"/><path d="M219.969 161.602C221.461 163.125 223.5 163.988 225.633 164L225.652 164C227.777 163.992 229.812 163.141 231.309 161.633L263.133 129.797C266.262 126.672 266.262 121.602 263.137 118.477 260.016 115.348 254.945 115.348 251.82 118.473L225.68 144.609 215.23 134.059C212.117 130.918 207.051 130.895 203.91 134.008 200.77 137.121 200.75 142.188 203.859 145.328Z" fill="#2E5EAB"/><path d="M333 248 141 248C136.582 248 133 251.582 133 256 133 260.418 136.582 264 141 264L333 264C337.418 264 341 260.418 341 256 341 251.582 337.418 248 333 248Z" fill="#2E5EAB"/><path d="M333 285 141 285C136.582 285 133 288.582 133 293 133 297.418 136.582 301 141 301L333 301C337.418 301 341 297.418 341 293 341 288.582 337.418 285 333 285Z" fill="#2E5EAB"/></svg>