<svg width="512" height="512" viewBox="0 0 64 64" xmlns="http://www.w3.org/2000/svg" xmlns:xlink="http://www.w3.org/1999/xlink" id="Layer_1" overflow="hidden"><path d="M4 53C4 51.8954 4.89543 51 6 51L14 51C15.1046 51 16 51.8954 16 53L16 62 18 62 18 53C18 50.7909 16.2091 49 14 49L12.969 49C15.1909 47.3603 15.6628 44.2298 14.0231 42.0079 12.3833 39.7861 9.25288 39.3141 7.031 40.9539 4.80912 42.5936 4.3372 45.7241 5.97694 47.9459 6.27365 48.348 6.62895 48.7033 7.031 49L6 49C3.79086 49 2 50.7909 2 53L2 62 4 62ZM7 45C7 43.3431 8.34315 42 10 42 11.6569 42 13 43.3431 13 45 13 46.6569 11.6569 48 10 48 8.34315 48 7 46.6569 7 45Z" fill="#2E5EAB"/><path d="M5 53 7 53 7 62 5 62Z" fill="#2E5EAB"/><path d="M13 53 15 53 15 62 13 62Z" fill="#2E5EAB"/><path d="M40 62 40 53C40 50.7909 38.2091 49 36 49L34.969 49C37.1909 47.3603 37.6628 44.2298 36.0231 42.0079 34.3833 39.7861 31.2529 39.3141 29.031 40.9539 26.8091 42.5936 26.3372 45.7241 27.9769 47.9459 28.2736 48.348 28.629 48.7033 29.031 49L28 49C25.7909 49 24 50.7909 24 53L24 62 26 62 26 53C26 51.8954 26.8954 51 28 51L36 51C37.1046 51 38 51.8954 38 53L38 62ZM32 48C30.3431 48 29 46.6569 29 45 29 43.3431 30.3431 42 32 42 33.6569 42 35 43.3431 35 45 35 46.6569 33.6569 48 32 48Z" fill="#2E5EAB"/><path d="M27 53 29 53 29 62 27 62Z" fill="#2E5EAB"/><path d="M35 53 37 53 37 62 35 62Z" fill="#2E5EAB"/><path d="M58 49 56.969 49C59.1909 47.3603 59.6628 44.2298 58.0231 42.0079 56.3833 39.7861 53.2529 39.3141 51.031 40.9539 48.8091 42.5936 48.3372 45.7241 49.9769 47.9459 50.2737 48.348 50.629 48.7033 51.031 49L50 49C47.7909 49 46 50.7909 46 53L46 62 48 62 48 53C48 51.8954 48.8954 51 50 51L58 51C59.1046 51 60 51.8954 60 53L60 62 62 62 62 53C62 50.7909 60.2091 49 58 49ZM54 48C52.3431 48 51 46.6569 51 45 51 43.3431 52.3431 42 54 42 55.6569 42 57 43.3431 57 45 57 46.6569 55.6569 48 54 48Z" fill="#2E5EAB"/><path d="M49 53 51 53 51 62 49 62Z" fill="#2E5EAB"/><path d="M57 53 59 53 59 62 57 62Z" fill="#2E5EAB"/><path d="M21 21C21.0001 21.351 21.1841 21.6762 21.485 21.857L31.485 27.857C31.8019 28.0474 32.1981 28.0474 32.515 27.857L42.515 21.857C42.8159 21.6762 42.9999 21.351 43 21L43 9C42.9999 8.64901 42.8159 8.32376 42.515 8.143L32.515 2.143C32.1981 1.95259 31.8019 1.95259 31.485 2.143L21.485 8.143C21.1841 8.32376 21.0001 8.64901 21 9ZM41 20.434 33 25.234 33 16.328 41 10.889ZM32 4.166 40.144 9.053 32 14.589 23.856 9.053ZM23 10.889 31 16.328 31 25.234 23 20.434Z" fill="#2E5EAB"/><path d="M49 22.5C48.9347 20.6363 48.0984 18.8834 46.691 17.66L45.309 19.1C46.3222 19.9479 46.9352 21.1804 47 22.5 47 26.565 40.131 30 32 30 23.869 30 17 26.565 17 22.5 17.0648 21.1804 17.6778 19.9479 18.691 19.1L17.309 17.66C15.9016 18.8834 15.0653 20.6363 15 22.5 15 27.827 22.467 32 32 32 41.533 32 49 27.827 49 22.5Z" fill="#2E5EAB"/><path d="M31 34 33 34 33 38 31 38Z" fill="#2E5EAB"/><path d="M8 32 18 32 18 34 8 34Z" fill="#2E5EAB" transform="matrix(0.6 -0.8 0.8 0.6 -21.2 23.6)"/><path d="M50 28 52 28 52 38 50 38Z" fill="#2E5EAB" transform="matrix(0.8 -0.6 0.6 0.8 -9.6 37.2)"/></svg>