<svg width="512" height="512" viewBox="0 0 24 24" xmlns="http://www.w3.org/2000/svg" xmlns:xlink="http://www.w3.org/1999/xlink" id="light" overflow="hidden"><path d="M12 3C11.724 3 11.5 2.776 11.5 2.5L11.5 0.5C11.5 0.224 11.724 0 12 0 12.276 0 12.5 0.224 12.5 0.5L12.5 2.5C12.5 2.776 12.276 3 12 3Z" fill="#2E5EAB"/><path d="M18.718 5.782C18.59 5.782 18.462 5.733 18.364 5.636 18.169 5.441 18.169 5.124 18.364 4.929L19.778 3.515C19.973 3.32 20.29 3.32 20.485 3.515 20.68 3.71 20.68 4.027 20.485 4.222L19.071 5.636C18.974 5.733 18.846 5.782 18.718 5.782Z" fill="#2E5EAB"/><path d="M23.5 12.5 21.5 12.5C21.224 12.5 21 12.276 21 12 21 11.724 21.224 11.5 21.5 11.5L23.5 11.5C23.776 11.5 24 11.724 24 12 24 12.276 23.776 12.5 23.5 12.5Z" fill="#2E5EAB"/><path d="M20.132 20.632C20.004 20.632 19.876 20.583 19.778 20.486L18.364 19.072C18.169 18.877 18.169 18.56 18.364 18.365 18.559 18.17 18.876 18.17 19.071 18.365L20.485 19.779C20.68 19.974 20.68 20.291 20.485 20.486 20.388 20.583 20.26 20.632 20.132 20.632Z" fill="#2E5EAB"/><path d="M12 24C11.724 24 11.5 23.776 11.5 23.5L11.5 21.5C11.5 21.224 11.724 21 12 21 12.276 21 12.5 21.224 12.5 21.5L12.5 23.5C12.5 23.776 12.276 24 12 24Z" fill="#2E5EAB"/><path d="M3.868 20.632C3.74 20.632 3.612 20.583 3.514 20.486 3.319 20.291 3.319 19.974 3.514 19.779L4.928 18.365C5.123 18.17 5.44 18.17 5.635 18.365 5.83 18.56 5.83 18.877 5.635 19.072L4.221 20.486C4.124 20.583 3.996 20.632 3.868 20.632Z" fill="#2E5EAB"/><path d="M2.5 12.5 0.5 12.5C0.224 12.5 0 12.276 0 12 0 11.724 0.224 11.5 0.5 11.5L2.5 11.5C2.776 11.5 3 11.724 3 12 3 12.276 2.776 12.5 2.5 12.5Z" fill="#2E5EAB"/><path d="M5.282 5.782C5.154 5.782 5.026 5.733 4.928 5.636L3.515 4.222C3.32 4.027 3.32 3.71 3.515 3.515 3.71 3.32 4.027 3.32 4.222 3.515L5.636 4.929C5.831 5.124 5.831 5.441 5.636 5.636 5.538 5.733 5.41 5.782 5.282 5.782Z" fill="#2E5EAB"/><path d="M10.573 20C10.514 20 10.456 19.99 10.398 19.969 10.179 19.887 10.046 19.665 10.077 19.435L10.93 13 7.5 13C7.311 13 7.138 12.893 7.053 12.724 6.968 12.555 6.986 12.352 7.1 12.2L13.1 4.2C13.239 4.014 13.486 3.948 13.697 4.04 13.909 4.131 14.032 4.354 13.994 4.582L13.09 10 16.5 10C16.684 10 16.853 10.101 16.94 10.263 17.027 10.425 17.018 10.621 16.918 10.776L10.991 19.776C10.896 19.919 10.737 20 10.573 20ZM8.5 12 11.5 12C11.645 12 11.781 12.063 11.876 12.171 11.971 12.278 12.015 12.423 11.996 12.566L11.355 17.404 15.572 11 12.5 11C12.353 11 12.214 10.936 12.118 10.823 12.023 10.711 11.982 10.562 12.007 10.418L12.67 6.44Z" fill="#2E5EAB"/></svg>