<svg width="682.667" height="682.667" viewBox="0 -1 512.106 512" xmlns="http://www.w3.org/2000/svg" xmlns:xlink="http://www.w3.org/1999/xlink" overflow="hidden"><path d="M301.762 448.559C302.656 454.527 306.285 459.734 311.574 462.637 316.863 465.543 323.203 465.812 328.719 463.363L410.34 427.309C414.383 425.527 416.395 420.957 414.98 416.77L374.023 295.078C367.469 275.879 347.93 264.301 327.941 267.77L315.141 270.066C293.219 273.891 278.406 294.586 281.863 316.574ZM321.832 447.746C321.184 448.051 320.43 448.02 319.809 447.66 319.164 447.32 318.723 446.684 318.633 445.957L298.68 314.082C298.27 311.242 298.367 308.352 298.973 305.547L313.402 316.949C320.371 322.383 325.57 329.766 328.336 338.164L359.609 431.105ZM318.113 286.93 330.91 284.633C332.285 284.387 333.68 284.266 335.078 284.266 345.355 284.293 354.488 290.832 357.824 300.555L396.32 414.902 375.27 424.195 344.504 332.777C340.691 321.223 333.535 311.059 323.941 303.578L308.297 291.203C311.203 289.055 314.559 287.594 318.113 286.93Z" fill="#2E5EAB"/><path d="M21.8789 80.0039 149.305 117.551C151.027 118.062 152.629 118.918 154.008 120.066L198.953 157.512 206.199 163.57 264.922 468.801C267.891 484.316 277.773 497.633 291.77 504.961 305.766 512.285 322.34 512.824 336.781 506.422L418.66 470.25C426.637 479.699 439.797 482.926 451.242 478.238L494.43 460.523C508.973 454.562 515.93 437.945 509.977 423.402L431.324 231.41 437.16 224.668C448.047 212.059 446.676 193.02 434.098 182.098L344.105 104.129C338.047 98.8828 330.152 96.2617 322.164 96.8398 314.172 97.418 306.738 101.148 301.496 107.207L286.941 124.043 254.23 96.7891 254.18 96.7891 193.594 47.5078C190.488 44.9766 186.906 43.0938 183.062 41.9688L45.0273 1.28516C29.043-3.41016 12.2734 5.73047 7.55859 21.7109L1.44922 42.457C-0.832031 50.1445 0.0429688 58.4219 3.875 65.4688 7.70703 72.5117 14.1836 77.7422 21.8789 80.0039ZM294.371 141.578 314.41 118.402C316.688 115.77 319.918 114.148 323.395 113.895 326.867 113.645 330.301 114.785 332.934 117.062L422.926 195C428.395 199.746 428.988 208.02 424.258 213.5L414.992 224.215C412.883 226.648 412.32 230.062 413.539 233.039L494.188 429.828C496.57 435.645 493.785 442.293 487.969 444.676L444.766 462.383C441.969 463.527 438.832 463.516 436.043 462.348 433.258 461.18 431.051 458.949 429.906 456.152 429.035 454.02 427.34 452.328 425.199 451.465 423.062 450.602 420.668 450.637 418.559 451.57L329.887 490.746C320.199 495.027 309.09 494.656 299.711 489.742 290.328 484.828 283.699 475.906 281.699 465.504L222.402 157.289C222.027 155.355 220.996 153.609 219.484 152.348L216.805 150.113 249.496 115.059 282.469 142.52C286.039 145.488 291.332 145.055 294.371 141.547ZM17.8164 47.3047 23.9102 26.543C24.8906 23.1992 27.1641 20.3867 30.2227 18.7188 33.2812 17.0547 36.875 16.6719 40.2148 17.6602L178.164 58.2695C179.836 58.7617 181.391 59.5781 182.738 60.6758L236.293 104.195 203.68 139.184 164.93 106.883C161.766 104.238 158.094 102.273 154.137 101.113L26.6914 63.5938C19.7422 61.543 15.7734 54.2539 17.8164 47.3047Z" fill="#2E5EAB"/><path d="M59.75 293.336C75.6992 293.695 91.1016 287.52 102.383 276.238 113.664 264.957 119.844 249.555 119.48 233.602 119.48 206.398 86.4219 157.273 72.6406 141.375 69.3125 137.789 64.6406 135.754 59.75 135.754 54.8555 135.754 50.1836 137.789 46.8555 141.375 33.0742 157.273 0.015625 206.398 0.015625 233.602-0.34375 249.555 5.83203 264.957 17.1133 276.238 28.3945 287.52 43.7969 293.695 59.75 293.336ZM59.75 152.535C74.8008 169.895 102.414 213.848 102.414 233.602 102.809 245.035 98.4414 256.117 90.3516 264.207 82.2656 272.297 71.1797 276.664 59.75 276.27 48.3164 276.664 37.2344 272.297 29.1445 264.207 21.0547 256.117 16.6875 245.035 17.082 233.602 17.082 213.855 44.7031 169.902 59.75 152.535Z" fill="#2E5EAB"/><path d="M244.664 159.199C242.469 159.762 240.582 161.172 239.426 163.121 238.27 165.074 237.938 167.406 238.504 169.602L242.77 186.312C243.738 190.086 247.137 192.727 251.031 192.73 251.746 192.734 252.457 192.645 253.148 192.465 257.715 191.301 260.473 186.652 259.309 182.086L255.043 165.371C254.484 163.176 253.078 161.293 251.133 160.137 249.188 158.98 246.859 158.641 244.664 159.199Z" fill="#2E5EAB"/><path d="M251.969 214.234 264.062 265.434C264.973 269.281 268.41 272.004 272.363 272.004 273.027 272.008 273.684 271.93 274.328 271.773 278.906 270.695 281.75 266.113 280.684 261.531L268.594 210.332C267.891 207.363 265.66 204.992 262.738 204.117 259.816 203.238 256.648 203.988 254.426 206.078 252.207 208.172 251.27 211.289 251.969 214.258Z" fill="#2E5EAB"/></svg>