<svg viewBox="0 0 408.69 408.67" xmlns="http://www.w3.org/2000/svg" xmlns:xlink="http://www.w3.org/1999/xlink" id="OBJECTS" overflow="hidden"><style>
.MsftOfcThm_Background1_Fill_v2 {
 fill:#FFFFFF; 
}
</style>
<defs></defs><path d="M4357.84 2934.44C4357.73 2933.78 4357.31 2933.21 4356.71 2932.91 4353.35 2930.92 4351.95 2926.78 4353.39 2923.15 4354.64 2919.37 4357.68 2917.55 4361.68 2917.49 4364.47 2917.49 4367.26 2917.49 4370.06 2917.49 4414.48 2917.49 4458.91 2917.49 4503.34 2917.49 4514.61 2917.49 4523.46 2913.43 4528.85 2903.08 4530.82 2899 4531.76 2894.5 4531.6 2889.97 4531.6 2812.29 4531.63 2734.62 4531.69 2656.97 4531.69 2654.14 4530.91 2653.47 4528.16 2653.49 4507.27 2653.61 4486.39 2653.57 4465.51 2653.55 4439.16 2653.55 4420.93 2635.28 4420.89 2608.94 4420.89 2601.22 4420.78 2593.51 4420.89 2585.8 4420.99 2581.02 4423.89 2577.85 4428.16 2577.11 4431.83 2576.64 4435.39 2578.57 4436.99 2581.91 4437.67 2583.65 4437.95 2585.52 4437.81 2587.38 4437.81 2594.69 4437.81 2602.01 4437.81 2609.38 4437.7 2626.04 4449.87 2636.22 4461.99 2636.38 4480.82 2636.58 4499.65 2636.44 4518.57 2636.44 4518.36 2634.85 4517.06 2634.23 4516.18 2633.35 4486.94 2604.08 4457.7 2574.82 4428.45 2545.57 4426.89 2543.79 4424.61 2542.79 4422.24 2542.85 4365.84 2542.94 4309.44 2542.97 4253.04 2542.92 4238.85 2542.92 4229.09 2550.06 4225.77 2562.72 4225.17 2565.58 4224.95 2568.51 4225.1 2571.43 4225.1 2603.35 4225.1 2635.27 4225.1 2667.2 4225.1 2675 4222.1 2679.2 4216.49 2679.13 4210.88 2679.06 4207.95 2674.97 4207.95 2667.13 4207.95 2634.94 4207.95 2602.75 4207.95 2570.57 4207.95 2551.76 4216.41 2538.07 4233.27 2529.72 4238.57 2527.17 4244.39 2525.88 4250.27 2525.97 4309.46 2525.97 4368.66 2525.95 4427.85 2525.92 4431.07 2525.84 4434.17 2527.12 4436.41 2529.44 4472.62 2565.65 4508.84 2601.86 4545.07 2638.05 4547.46 2640.42 4548.75 2643.68 4548.62 2647.05 4548.58 2728.59 4548.56 2810.13 4548.56 2891.66 4548.56 2913.28 4533.76 2930.42 4512.65 2933.91 4512.36 2933.96 4512.13 2934.38 4511.87 2934.63Z" class="MsftOfcThm_Background1_Fill_v2" fill="#FFFFFF" transform="translate(-4139.94 -2525.77)"/><path d="M4139.94 2802.75C4141.87 2799.75 4141.44 2796.21 4142.11 2792.92 4148.88 2759.77 4166.37 2733.88 4194.58 2715.25 4213.48 2702.58 4235.76 2695.93 4258.51 2696.17 4296.76 2696.44 4328.26 2711.61 4352.42 2741.36 4366.69 2758.73 4375.44 2779.98 4377.54 2802.36 4380.93 2836.81 4371.54 2867.6 4348.54 2893.75 4328.05 2917.09 4302.14 2930.37 4271.21 2933.75 4270.65 2933.81 4270.21 2933.88 4270.03 2934.51L4246.88 2934.51C4246.44 2933.3 4245.33 2933.71 4244.5 2933.6 4218.74 2930.13 4196.23 2919.71 4177.38 2901.8 4157.7 2883.1 4145.6 2860.32 4141.38 2833.4 4141.12 2831.7 4141.53 2829.69 4139.88 2828.4ZM4259 2917.44C4315 2917.7 4361.18 2871.44 4361.17 2815.25 4361.16 2759.06 4315.84 2713.61 4259.37 2713.18 4203.37 2712.75 4157.05 2758.46 4157 2815.07 4157 2871.34 4201.77 2916.78 4259 2917.44Z" class="MsftOfcThm_Background1_Fill_v2" fill="#FFFFFF" transform="translate(-4139.94 -2525.77)"/><path d="M4292.72 2644.87C4274.12 2644.51 4258.99 2629.19 4259.11 2610.87 4259.23 2592.13 4275.16 2576.48 4293.65 2576.93 4312.14 2577.38 4327.36 2592.72 4327.25 2611.01 4327.13 2629.79 4311.38 2645.24 4292.72 2644.87ZM4276.26 2611C4276.34 2620.35 4283.99 2627.86 4293.34 2627.78 4302.69 2627.7 4310.2 2620.05 4310.12 2610.7 4310.04 2601.38 4302.44 2593.88 4293.12 2593.92 4283.75 2594 4276.22 2601.63 4276.26 2611Z" class="MsftOfcThm_Background1_Fill_v2" fill="#FFFFFF" transform="translate(-4139.94 -2525.77)"/><path d="M4450.82 2747.09C4463.05 2747.09 4475.29 2747.09 4487.52 2747.09 4491.47 2747.09 4494.88 2748.32 4496.65 2752.2 4498.09 2755.16 4497.57 2758.71 4495.33 2761.13 4492.97 2763.98 4489.65 2764.23 4486.28 2764.23L4418.06 2764.23C4416.2 2764.3 4414.34 2764.27 4412.49 2764.14 4409.49 2763.85 4406.86 2762.78 4405.19 2759.99 4402.8 2756.11 4404 2751.02 4407.89 2748.62 4408.6 2748.18 4409.38 2747.86 4410.19 2747.65 4411.87 2747.27 4413.59 2747.08 4415.31 2747.1 4427.15 2747.06 4439 2747.09 4450.82 2747.09Z" class="MsftOfcThm_Background1_Fill_v2" fill="#FFFFFF" transform="translate(-4139.94 -2525.77)"/><path d="M4450.62 2798.17C4462.62 2798.17 4474.59 2798.17 4486.52 2798.17 4489.19 2798.17 4491.83 2798.32 4494.06 2800.1 4497.73 2802.86 4498.46 2808.07 4495.7 2811.74 4494.58 2813.22 4493 2814.29 4491.2 2814.77 4490.18 2815.07 4489.13 2815.25 4488.07 2815.29 4463.21 2815.29 4438.34 2815.38 4413.47 2815.29 4407.56 2815.29 4403.99 2811.76 4404.01 2806.74 4403.9 2802.87 4406.59 2799.49 4410.39 2798.74 4412.08 2798.38 4413.8 2798.21 4415.52 2798.22 4427.22 2798.15 4438.92 2798.17 4450.62 2798.17Z" class="MsftOfcThm_Background1_Fill_v2" fill="#FFFFFF" transform="translate(-4139.94 -2525.77)"/><path d="M4433.68 2849.25C4440.45 2849.25 4447.21 2849.17 4453.98 2849.25 4457.77 2849.32 4461.03 2850.67 4462.62 2854.44 4463.93 2857.29 4463.49 2860.64 4461.49 2863.05 4459.49 2865.6 4456.7 2866.32 4453.74 2866.34 4440.34 2866.4 4426.94 2866.46 4413.54 2866.34 4407.62 2866.28 4404.05 2862.89 4404.01 2857.89 4403.96 2852.73 4407.63 2849.38 4413.79 2849.27 4420.42 2849.15 4427.05 2849.25 4433.68 2849.25Z" class="MsftOfcThm_Background1_Fill_v2" fill="#FFFFFF" transform="translate(-4139.94 -2525.77)"/><path d="M4284.61 2840.73C4284.61 2838.47 4284.61 2836.21 4284.61 2833.95 4284.5 2826.95 4281.39 2823.8 4274.3 2823.74 4264.46 2823.65 4254.61 2823.4 4244.79 2823.74 4227.27 2824.43 4215.71 2811.31 4216.53 2795.46 4216.77 2790.95 4216.53 2786.46 4216.53 2781.9 4216.78 2766.67 4227.53 2755.9 4242.73 2755.62 4250.28 2755.47 4250.28 2755.47 4250.64 2747.86 4250.9 2742.23 4254.12 2738.74 4259.07 2738.73 4264.02 2738.72 4267.34 2742.31 4267.6 2747.83 4267.72 2750.32 4266.89 2753.58 4268.16 2755.09 4269.43 2756.6 4272.89 2755.55 4275.38 2755.6 4290.6 2755.92 4301.03 2766.27 4301.7 2781.84 4301.8 2784.1 4301.81 2786.36 4301.7 2788.62 4301.4 2794.53 4298.11 2798.08 4293.07 2798.04 4288.03 2798 4284.86 2794.43 4284.59 2788.47 4284.49 2786.47 4284.59 2784.47 4284.59 2782.47 4284.44 2776.07 4281.47 2772.75 4275.14 2772.63 4264.51 2772.44 4253.87 2772.46 4243.23 2772.63 4236.97 2772.73 4233.76 2776.05 4233.56 2782.33 4233.4 2787.12 4233.43 2791.91 4233.56 2796.69 4233.72 2803.44 4237 2806.69 4243.73 2806.69 4253.97 2806.74 4264.21 2806.69 4274.45 2806.69 4290.25 2806.75 4300.81 2816.53 4301.65 2832.33 4302.11 2838.96 4302.01 2845.62 4301.35 2852.24 4300.02 2864.48 4290.01 2873.94 4277.72 2874.58 4274.55 2874.78 4270.62 2873.73 4268.41 2875.24 4266.2 2876.75 4268 2880.92 4267.57 2883.9 4266.89 2888.56 4263.34 2891.84 4259.02 2891.75 4254.7 2891.66 4251.23 2888.39 4250.76 2883.65 4250.71 2883.12 4250.69 2882.59 4250.67 2882.06 4250.45 2874.84 4250.45 2874.84 4243.44 2874.73 4227.17 2874.48 4216.64 2863.85 4216.56 2847.59 4216.56 2845.33 4216.45 2843.06 4216.56 2840.81 4216.91 2835.81 4220.41 2832.34 4224.9 2832.25 4229.39 2832.16 4233.14 2835.82 4233.43 2840.95 4233.6 2843.87 4233.33 2846.82 4233.69 2849.71 4234.33 2854.78 4237.36 2857.63 4242.45 2857.71 4253.49 2857.87 4264.53 2857.87 4275.56 2857.71 4281.18 2857.64 4284.29 2854.32 4284.56 2848.64 4284.67 2845.99 4284.56 2843.33 4284.56 2840.64Z" class="MsftOfcThm_Background1_Fill_v2" fill="#FFFFFF" transform="translate(-4139.94 -2525.77)"/></svg>