<svg viewBox="0 0 162.36 255.1" xmlns="http://www.w3.org/2000/svg" xmlns:xlink="http://www.w3.org/1999/xlink" id="Objects" overflow="hidden"><defs></defs><path d="M-399.17 166.29C-395.503 154.42-388.573 143.82-379.17 135.7-360.876 120.409-350.318 97.783-350.35 73.94-350.315 29.089-386.646-7.29799-431.497-7.33254-432.879-7.3336-434.26-7.29941-435.64-7.23-477.4-5.46-511.51 29.83-512.69 71.59-513.401 96.2445-502.782 119.867-483.87 135.7-474.115 143.62-466.946 154.271-463.28 166.29Z" fill="#F9DA21" transform="translate(512.71 7.33)"/><path d="M-439.17 167.46-433.87 167.46-457.4 79.82-455.64 79.82C-452.531 79.7962-449.562 78.5242-447.4 76.29-446.353 75.1304-444.852 74.4873-443.29 74.53-441.725 74.4857-440.22 75.1289-439.17 76.29-435.61 80.5122-429.301 81.0489-425.079 77.4888-424.646 77.1238-424.245 76.7228-423.88 76.29-422.828 75.1322-421.324 74.4897-419.76 74.53-418.219 74.6002-416.756 75.2253-415.64 76.29-413.55 78.62-410.539 79.9113-407.41 79.82L-405.64 79.82-428.58 167.46-423.29 167.46-399.17 75.71C-399.17 74.53-399.17 73.35-400.35 72.77-401.354 72.3223-402.531 72.5546-403.29 73.35-404.18 74.3919-405.453 75.0302-406.82 75.12-408.58 75.12-409.76 74.53-411.52 73.35-413.88 71-416.23 69.83-419.17 69.83-422.11 69.83-424.46 71-426.82 73.35-428.974 75.6227-432.563 75.7186-434.836 73.5643-434.909 73.4948-434.98 73.4233-435.05 73.35-436.911 71.0476-439.741 69.7458-442.7 69.83L-442.7 69.83C-445.657 69.7458-448.483 71.0479-450.34 73.35-451.607 74.5192-453.276 75.1534-455 75.12-456.18 75.12-457.94 74.53-458.53 73.35-459.287 72.5518-460.466 72.3192-461.47 72.77-462.576 73.1863-463.135 74.4206-462.719 75.5267-462.695 75.589-462.669 75.6502-462.64 75.71Z" fill="#FFFFFF" transform="translate(512.71 7.33)"/><path d="M-449.75 235.41C-446.694 242.806-439.522 247.668-431.52 247.77-423.518 247.668-416.346 242.806-413.29 235.41Z" fill="#6D6967" transform="translate(512.71 7.33)"/><path d="M-409.76 235.41-452.7 235.41C-458.516 235.438-463.252 230.746-463.28 224.93-463.28 224.897-463.28 224.863-463.28 224.83L-463.28 165.7-399.17 165.7-399.17 224.83C-399.148 230.651-403.849 235.388-409.67 235.41-409.7 235.41-409.73 235.41-409.76 235.41Z" fill="#7F7B78" transform="translate(512.71 7.33)"/><path d="M-399.76 194.52-463.28 194.52C-466.84 194.487-469.717 191.61-469.75 188.05L-469.75 188.05C-469.717 184.49-466.84 181.613-463.28 181.58L-399.76 181.58C-396.2 181.613-393.323 184.49-393.29 188.05L-393.29 188.05C-393.323 191.61-396.2 194.487-399.76 194.52Z" fill="#A7A7A7" transform="translate(512.71 7.33)"/><path d="M-399.76 221.42-463.28 221.42C-466.84 221.387-469.717 218.51-469.75 214.95L-469.75 214.95C-469.717 211.39-466.84 208.513-463.28 208.48L-399.76 208.48C-396.2 208.513-393.323 211.39-393.29 214.95L-393.29 214.95C-393.323 218.51-396.2 221.387-399.76 221.42Z" fill="#A7A7A7" transform="translate(512.71 7.33)"/><g opacity="0.76"><path d="M-371.47 62.29C-373.99 62.288-376.186 60.5739-376.8 58.13-381.135 40.9434-393.255 26.7709-409.56 19.82-412.354 18.6429-413.665 15.4236-412.488 12.6293-412.485 12.6229-412.483 12.6164-412.48 12.61-411.301 9.81659-408.081 8.5079-405.287 9.68694-405.285 9.68796-405.282 9.68898-405.28 9.69-385.796 17.9922-371.312 34.9247-366.13 55.46-365.393 58.4064-367.184 61.3925-370.13 62.13-370.569 62.2368-371.019 62.2905-371.47 62.29Z" fill="#FFFFFF" transform="translate(512.71 7.33)"/></g><path d="M-463.28 165.7-463.28 181.58C-466.84 181.613-469.717 184.49-469.75 188.05-469.717 191.61-466.84 194.487-463.28 194.52L-463.28 208.52C-466.84 208.553-469.717 211.43-469.75 214.99-469.717 218.55-466.84 221.427-463.28 221.46L-463.28 224.87C-463.308 230.685-458.616 235.422-452.8 235.45-452.767 235.45-452.733 235.45-452.7 235.45L-449.75 235.45C-446.694 242.846-439.522 247.708-431.52 247.81L-431.29 235.45-431.23 235.45-431.05 165.74Z" fill="#212020" opacity="0.15" transform="translate(512.71 7.33)"/><path d="M-463.28 166.29C-466.946 154.271-474.115 143.62-483.87 135.7-502.782 119.867-513.401 96.2445-512.69 71.59-511.51 29.83-477.4-5.41-435.64-7.23L-435.64 165.7Z" fill="#212020" opacity="0.06" transform="translate(512.71 7.33)"/></svg>