<svg width="682.667" height="682.667" viewBox="0 0 682.667 682.667" xmlns="http://www.w3.org/2000/svg" xmlns:xlink="http://www.w3.org/1999/xlink" id="svg2433" xml:space="preserve" overflow="hidden"><style>
.MsftOfcResponsive_Stroke_2e5eab {
 stroke:#2E5EAB; 
}
</style>
<defs id="defs2437"><clipPath id="clipPath2447"><path d="M0 512 512 512 512 0 0 0Z" id="path2445"/></clipPath></defs><g id="g2439" transform="matrix(1.33333 0 0 -1.33333 0 682.667)"><g id="g2441"><g id="g2443" clip-path="url(#clipPath2447)"><g id="g2449" transform="translate(201.024 325.759)"><path d="M0 0C-6.681 4.514-14.735 7.149-23.405 7.149-46.524 7.149-65.266-11.593-65.266-34.712-65.266-57.831-46.524-76.573-23.405-76.573-14.016-76.573-6.292-73.481-0.431-68.261 0.782-67.181 1.916-66.009 2.967-64.755" id="path2451" class="MsftOfcResponsive_Stroke_2e5eab" stroke="#2E5EAB" stroke-width="19.5143" stroke-linecap="round" stroke-linejoin="round" stroke-miterlimit="10" fill="none"/></g><g id="g2453" transform="translate(367.457 320.238)"><path d="M0 0C0 0-22.952-0.289-24.039 0.074-25.126 0.437-22.296 2.351-7.248 23.851-4.437 27.867-2.891 31.254-2.232 34.092L-2 35.917C-2 42.583-7.404 47.988-14.07 47.988-19.937 47.988-24.825 43.804-25.915 38.257" id="path2455" class="MsftOfcResponsive_Stroke_2e5eab" stroke="#2E5EAB" stroke-width="19.5143" stroke-linecap="round" stroke-linejoin="round" stroke-miterlimit="10" fill="none"/></g><g id="g2457" transform="translate(315.19 291.047)"><path d="M0 0C0-23.119-18.742-41.861-41.861-41.861-64.98-41.861-83.722-23.119-83.722 0-83.722 23.119-64.98 41.861-41.861 41.861-18.742 41.861 0 23.119 0 0Z" id="path2459" class="MsftOfcResponsive_Stroke_2e5eab" stroke="#2E5EAB" stroke-width="19.5143" stroke-linecap="round" stroke-linejoin="round" stroke-miterlimit="10" fill="none"/></g><g id="g2461" transform="translate(416.323 191.871)"><path d="M0 0 8.016 0C52.288 0 88.177 35.89 88.177 80.161 88.177 116.179 64.42 146.643 31.722 156.752 32.724 170.227 28.281 184.028 17.977 194.333 4.003 208.306-16.42 211.844-33.702 205.025-57.097 236.232-94.27 256.516-136.274 256.516-180.623 256.516-219.706 234.001-242.739 199.786-251.382 205.225-261.582 208.419-272.548 208.419-300.821 208.419-324.143 187.489-328.029 160.291-328.242 160.292-328.448 160.322-328.662 160.322-372.933 160.322-408.823 124.433-408.823 80.161-408.823 35.89-372.933 5.68434e-14-328.662 5.68434e-14L-320.646 5.68434e-14" id="path2463" class="MsftOfcResponsive_Stroke_2e5eab" stroke="#2E5EAB" stroke-width="19.5143" stroke-linecap="round" stroke-linejoin="round" stroke-miterlimit="10" fill="none"/></g><g id="g2465" transform="translate(127.742 207.903)"><path d="M0 0 0-96.194" id="path2467" class="MsftOfcResponsive_Stroke_2e5eab" stroke="#2E5EAB" stroke-width="19.5143" stroke-linecap="round" stroke-linejoin="round" stroke-miterlimit="10" fill="none"/></g><g id="g2469" transform="translate(103.693 127.742)"><path d="M0 0 24.048-24.048 48.097 0" id="path2471" class="MsftOfcResponsive_Stroke_2e5eab" stroke="#2E5EAB" stroke-width="19.5143" stroke-linecap="round" stroke-linejoin="round" stroke-miterlimit="10" fill="none"/></g><g id="g2473" transform="translate(191.871 207.903)"><path d="M0 0 0-136.274" id="path2475" class="MsftOfcResponsive_Stroke_2e5eab" stroke="#2E5EAB" stroke-width="19.5143" stroke-linecap="round" stroke-linejoin="round" stroke-miterlimit="10" fill="none"/></g><g id="g2477" transform="translate(167.823 87.6611)"><path d="M0 0 24.048-24.048 48.097 0" id="path2479" class="MsftOfcResponsive_Stroke_2e5eab" stroke="#2E5EAB" stroke-width="19.5143" stroke-linecap="round" stroke-linejoin="round" stroke-miterlimit="10" fill="none"/></g><g id="g2481" transform="translate(256 207.903)"><path d="M0 0 0-96.194" id="path2483" class="MsftOfcResponsive_Stroke_2e5eab" stroke="#2E5EAB" stroke-width="19.5143" stroke-linecap="round" stroke-linejoin="round" stroke-miterlimit="10" fill="none"/></g><g id="g2485" transform="translate(231.952 127.742)"><path d="M0 0 24.048-24.048 48.097 0" id="path2487" class="MsftOfcResponsive_Stroke_2e5eab" stroke="#2E5EAB" stroke-width="19.5143" stroke-linecap="round" stroke-linejoin="round" stroke-miterlimit="10" fill="none"/></g><g id="g2489" transform="translate(384.258 207.903)"><path d="M0 0 0-96.194" id="path2491" class="MsftOfcResponsive_Stroke_2e5eab" stroke="#2E5EAB" stroke-width="19.5143" stroke-linecap="round" stroke-linejoin="round" stroke-miterlimit="10" fill="none"/></g><g id="g2493" transform="translate(360.209 127.742)"><path d="M0 0 24.049-24.048 48.097 0" id="path2495" class="MsftOfcResponsive_Stroke_2e5eab" stroke="#2E5EAB" stroke-width="19.5143" stroke-linecap="round" stroke-linejoin="round" stroke-miterlimit="10" fill="none"/></g><g id="g2497" transform="translate(320.129 207.903)"><path d="M0 0 0-136.274" id="path2499" class="MsftOfcResponsive_Stroke_2e5eab" stroke="#2E5EAB" stroke-width="19.5143" stroke-linecap="round" stroke-linejoin="round" stroke-miterlimit="10" fill="none"/></g><g id="g2501" transform="translate(296.081 87.6611)"><path d="M0 0 24.048-24.048 48.097 0" id="path2503" class="MsftOfcResponsive_Stroke_2e5eab" stroke="#2E5EAB" stroke-width="19.5143" stroke-linecap="round" stroke-linejoin="round" stroke-miterlimit="10" fill="none"/></g></g></g></g></svg>