<svg viewBox="0 0 371.4 358.93" xmlns="http://www.w3.org/2000/svg" xmlns:xlink="http://www.w3.org/1999/xlink" id="OBJECTS" overflow="hidden"><style>
.MsftOfcThm_Background1_Fill_v2 {
 fill:#FFFFFF; 
}
</style>
<defs></defs><path d="M2921 2767.84 2991.64 2770.19C3008.59 2770.75 3025.54 2771.25 3042.49 2771.84 3047.49 2771.95 3052.39 2773.32 3056.71 2775.84 3071.05 2784.34 3071.44 2802.24 3057.55 2811.47 3052.34 2814.93 3046.3 2816.09 3040.55 2817.83 3000.17 2829.88 2959.77 2841.85 2919.35 2853.76 2909.03 2856.89 2898.02 2856.86 2887.72 2853.69 2849.61 2842.29 2811.44 2831.09 2773.29 2819.83 2772.58 2819.62 2771.84 2819.5 2771.2 2819.36 2770.41 2819.82 2770.64 2820.49 2770.62 2821.05 2770.41 2826.34 2768.62 2828.12 2763.22 2828.12 2746.51 2828.12 2729.8 2828.12 2713.09 2828.12 2709.97 2828.12 2706.86 2828.12 2703.74 2828.12 2698.22 2828.12 2696.39 2826.24 2696.39 2820.68 2696.39 2784.64 2696.39 2748.6 2696.39 2712.56 2696.39 2705.45 2696.39 2698.34 2696.39 2691.24 2696.39 2686.24 2698.39 2684.17 2703.39 2684.16 2723.46 2684.16 2743.54 2684.16 2763.62 2684.16 2768.55 2684.16 2770.55 2686.28 2770.62 2691.28 2770.76 2693.65 2770.76 2696.02 2770.62 2698.39 2770.32 2701.15 2771.46 2701.58 2773.96 2701.57 2795.65 2701.47 2817.35 2701.57 2839.05 2701.48 2848.43 2701.29 2857.65 2703.95 2865.5 2709.1 2880.93 2719.16 2896.6 2728.84 2912.17 2738.69 2916.23 2741.25 2919.76 2744.32 2921.93 2748.69 2924.93 2755.07 2924.4 2761.25 2921 2767.84ZM2966.45 2780.94C2946.23 2780.64 2922.34 2778.94 2898.38 2779.18 2893.88 2779.18 2889.44 2778.1 2885.45 2776.01 2880.24 2773.37 2875.05 2770.68 2869.85 2768.01 2858.56 2762.24 2847.24 2756.52 2835.99 2750.67 2831.2 2748.19 2830.7 2742.77 2834.89 2740.24 2837.33 2738.77 2839.6 2739.47 2841.89 2740.68 2857.7 2748.81 2873.58 2756.81 2889.35 2765.02 2893.2 2767.1 2897.63 2767.85 2901.95 2767.17 2907.9 2766.28 2912.48 2761.54 2912.09 2756.63 2911.78 2752.63 2908.99 2750.53 2906 2748.63 2889.71 2738.31 2873.37 2728.05 2857.09 2717.71 2852.33 2714.69 2846.8 2713.14 2841.17 2713.23 2818.72 2713.28 2796.28 2713.32 2773.83 2713.17 2770.91 2713.17 2770.44 2714.02 2770.45 2716.7 2770.54 2745.63 2770.54 2774.56 2770.45 2803.49 2770.45 2806.24 2771.26 2807.27 2773.89 2808.03 2813.38 2819.56 2852.85 2831.17 2892.3 2842.86 2899.5 2845.07 2907.19 2845.11 2914.41 2842.97 2958.41 2830.01 3002.39 2817.01 3046.36 2803.97 3048.89 2803.28 3051.21 2801.98 3053.12 2800.18 3057.28 2796.18 3057.12 2790.91 3052.64 2787.18 3049.59 2784.76 3045.79 2783.47 3041.9 2783.52 3018 2782.74 2994.1 2781.9 2966.46 2780.94ZM2707.82 2755.94C2707.82 2775.01 2707.89 2794.08 2707.75 2813.15 2707.75 2816.01 2708.52 2816.63 2711.27 2816.6 2725.11 2816.45 2738.94 2816.53 2752.77 2816.53 2758.52 2816.53 2758.51 2816.53 2758.77 2810.69 2758.82 2809.44 2758.98 2808.2 2758.99 2806.96 2758.99 2771.08 2758.99 2735.19 2759.06 2699.31 2759.06 2696.53 2758.4 2695.74 2755.56 2695.77 2740.89 2695.92 2726.19 2695.92 2711.44 2695.77 2708.44 2695.77 2707.74 2696.56 2707.76 2699.48 2707.9 2718.33 2707.83 2737.15 2707.83 2756Z" class="MsftOfcThm_Background1_Fill_v2" fill="#FFFFFF" transform="translate(-2696.33 -2497.16)"/><path d="M2774.12 2625.52C2774.12 2611.94 2774.12 2598.35 2774.12 2584.76 2774.24 2582.92 2773.37 2581.16 2771.84 2580.13 2744.51 2558.62 2747.62 2518.13 2777.84 2500.72 2780.05 2499.45 2782.21 2498.87 2784.48 2500.3 2786.75 2501.73 2787.6 2503.93 2787.56 2506.66 2787.43 2515.88 2787.49 2525.1 2787.35 2534.32 2787.35 2536.32 2787.92 2536.83 2789.86 2536.8 2796.71 2536.69 2803.56 2536.69 2810.42 2536.8 2812.3 2536.8 2813.02 2536.37 2813 2534.33 2812.88 2525.23 2813 2516.13 2812.86 2507.04 2812.81 2504.2 2813.23 2501.83 2815.78 2500.28 2818.33 2498.73 2820.71 2499.67 2823.06 2501.14 2839.47 2511.38 2848.46 2525.83 2847.52 2545.49 2846.84 2559.86 2840.29 2571.49 2828.91 2580.18 2827.08 2581.42 2826.05 2583.55 2826.23 2585.75 2826.3 2611.56 2826.3 2637.37 2826.23 2663.16 2826.23 2677.07 2818.52 2687.31 2805.9 2690.46 2790.84 2694.22 2774.99 2682.54 2774.12 2667.03 2774.12 2666.53 2774.06 2666.03 2774.06 2665.53L2774.06 2625.53ZM2775.79 2517.18C2759.07 2531.68 2762.16 2561.12 2781.26 2572.51 2784.07 2574.19 2785.75 2576.02 2785.72 2579.51 2785.58 2595.51 2785.63 2611.43 2785.62 2627.39 2785.62 2639.73 2785.53 2652.08 2785.62 2664.39 2785.72 2674.87 2795.35 2681.99 2804.77 2678.73 2810.85 2676.63 2814.65 2671.01 2814.65 2663.95 2814.65 2636.02 2814.65 2608.09 2814.65 2580.15 2814.65 2577.22 2815.2 2574.81 2818.03 2573.26 2829.5 2566.97 2835.26 2556.93 2836.03 2544.18 2836.7 2533.61 2832.64 2524.66 2824.46 2516.48 2824.46 2525.35 2824.46 2533.26 2824.46 2541.17 2824.46 2546.28 2822.55 2548.29 2817.55 2548.32 2805.96 2548.37 2794.36 2548.37 2782.76 2548.32 2777.76 2548.32 2775.76 2546.2 2775.76 2541.2 2775.77 2533.4 2775.79 2525.54 2775.79 2517.18Z" class="MsftOfcThm_Background1_Fill_v2" fill="#FFFFFF" transform="translate(-2696.33 -2497.16)"/><path d="M2879.85 2632.41C2878.93 2632.49 2878.01 2632.63 2877.1 2632.81 2871.1 2634.25 2870.1 2633.81 2866.81 2628.5 2863.62 2623.02 2861.26 2617.09 2859.81 2610.92 2858.9 2607.5 2859.9 2604.78 2863.32 2603.25 2863.77 2603.04 2864.2 2602.78 2864.63 2602.53 2871.79 2598.36 2871.79 2592.53 2864.63 2588.3 2859.12 2585.04 2858.69 2583.94 2860.38 2577.74 2861.99 2571.59 2864.56 2565.74 2868.01 2560.41 2870.01 2557.41 2872.53 2556.26 2876.01 2557.69 2876.81 2558.02 2877.64 2558.29 2878.48 2558.48 2884.56 2559.86 2887.61 2557.35 2887.4 2551.16 2887.39 2550.29 2887.3 2549.42 2887.14 2548.56 2885.69 2541.56 2885.99 2540.94 2892.21 2537.28 2897.31 2534.41 2902.77 2532.25 2908.45 2530.87 2912.65 2529.76 2914.54 2530.66 2916.72 2534.51 2917.19 2535.38 2917.71 2536.23 2918.28 2537.05 2921.89 2542.05 2926.91 2542.05 2930.58 2537.05 2936.47 2529.13 2936.58 2529.12 2946.06 2532.67 2950.6 2534.36 2954.99 2536.44 2959.17 2538.89 2962.27 2540.69 2963.31 2543.12 2962.27 2546.73 2959.39 2556.73 2962.9 2560.32 2972.95 2557.54 2976.55 2556.54 2978.95 2557.54 2980.95 2560.49 2984.83 2566.58 2987.61 2573.31 2989.18 2580.36 2990.03 2583.09 2988.76 2586.04 2986.18 2587.29 2984.86 2587.98 2983.59 2588.77 2982.4 2589.66 2977.91 2593.34 2978.07 2598.03 2982.78 2601.46 2983.8 2602.17 2984.87 2602.8 2985.98 2603.35 2988.75 2604.55 2990.14 2607.67 2989.18 2610.53 2987.33 2617.76 2984.37 2624.67 2980.4 2630.99 2979.18 2633.14 2976.63 2634.16 2974.26 2633.44 2973.05 2633.16 2971.87 2632.74 2970.65 2632.51 2963.44 2631.14 2960.2 2634.51 2961.65 2641.7 2963.22 2649.4 2962.97 2649.9 2956.19 2653.77 2951.05 2656.54 2945.57 2658.65 2939.89 2660.04 2936.91 2661.09 2933.63 2659.65 2932.38 2656.75 2932.1 2656.2 2931.83 2655.63 2931.51 2655.1 2927.35 2648.2 2921.51 2648.18 2917.4 2655.1 2914.01 2660.77 2912.78 2661.31 2906.57 2659.37 2900.77 2657.52 2895.18 2655.05 2889.9 2652.01 2886.52 2650.1 2885.59 2647.44 2886.66 2643.84 2887.03 2642.66 2887.31 2641.45 2887.48 2640.22 2888.13 2634.55 2886.11 2632.31 2879.85 2632.41ZM2899.23 2639.47C2899.09 2644.04 2899.09 2644.05 2903.23 2645.83 2904.18 2646.14 2905.1 2646.49 2906.01 2646.9 2907.45 2647.71 2908.32 2647.43 2909.47 2646.15 2918.88 2635.7 2929.85 2635.65 2939.2 2646.04 2940.42 2647.41 2941.36 2647.79 2942.97 2646.96 2944.3 2646.28 2945.7 2645.73 2947.14 2645.34 2949.64 2644.64 2950.14 2643.2 2949.9 2640.63 2948.74 2627.9 2957.05 2619.58 2969.83 2620.72 2972.18 2620.93 2973.29 2620.39 2973.99 2618.32 2974.4 2617.01 2974.94 2615.75 2975.6 2614.55 2976.84 2612.4 2976.15 2611.16 2974.32 2609.61 2965.02 2601.71 2964.84 2589.33 2974.32 2581.42 2978.05 2578.3 2975.4 2575.98 2974.64 2573.34 2973.88 2570.7 2972.7 2569.51 2969.33 2569.85 2957.15 2571.08 2948.19 2562.13 2949.72 2550.39 2950.11 2547.39 2949.16 2546.39 2946.77 2545.55 2945.58 2545.17 2944.44 2544.69 2943.34 2544.1 2941.54 2543.1 2940.4 2543.38 2938.95 2545.04 2930.28 2555.04 2918.37 2554.96 2909.73 2544.89 2908.43 2543.38 2907.35 2543.01 2905.63 2543.83 2904.17 2544.53 2902.68 2545.14 2901.15 2545.67 2899.15 2546.33 2898.69 2547.36 2898.92 2549.54 2900.27 2562.73 2891.72 2571.43 2878.52 2570.25 2876.15 2570.04 2875.09 2570.64 2874.43 2572.73 2873.99 2574.16 2873.43 2575.54 2872.76 2576.87 2871.88 2578.55 2872.53 2579.47 2873.83 2580.63 2884.27 2589.94 2884.23 2601.18 2873.72 2610.34 2872.49 2611.41 2871.95 2612.23 2872.72 2613.77 2873.39 2615.1 2873.94 2616.49 2874.37 2617.92 2875.12 2620.47 2876.43 2621.12 2879.26 2620.84 2891.25 2619.64 2899.59 2627.61 2899.23 2639.47Z" class="MsftOfcThm_Background1_Fill_v2" fill="#FFFFFF" transform="translate(-2696.33 -2497.16)"/><path d="M3038.25 2583.89C3038.25 2595.23 3038.32 2606.57 3038.19 2617.89 3038.19 2620.35 3038.86 2621.08 3041.31 2620.99 3046.16 2620.8 3051.03 2620.87 3055.88 2620.99 3060.46 2621.08 3062.48 2623.09 3062.48 2627.66 3062.48 2646.11 3062.66 2664.55 3062.43 2683 3062.21 2700 3049.29 2712.1 3031.97 2712 3014.65 2711.9 3001.87 2699.72 3001.71 2682.73 3001.54 2664.41 3001.64 2646.09 3001.71 2627.73 3001.71 2622.94 3003.71 2620.97 3008.55 2620.91 3013.78 2620.84 3019.02 2620.83 3024.25 2620.91 3026 2620.91 3026.6 2620.48 3026.6 2618.63 3026.53 2595.3 3026.53 2571.99 3026.6 2548.71 3026.6 2546.85 3025.95 2546.35 3024.22 2546.45 3022.1 2546.57 3019.98 2546.57 3017.87 2546.45 3014.42 2546.29 3012.12 2544.2 3012.24 2540.8 3012.67 2528.1 3013.22 2515.4 3013.89 2502.71 3014.07 2499.23 3016.43 2497.25 3019.84 2497.19 3028.06 2497.05 3036.29 2497.04 3044.51 2497.19 3048.25 2497.27 3050.25 2499.62 3050.44 2503.51 3050.99 2515.34 3051.54 2527.17 3052.02 2538.99 3052.24 2544.5 3050.31 2546.42 3044.83 2546.46 3038.3 2546.51 3038.3 2546.51 3038.3 2553.13ZM3013.16 2658.7C3013.16 2666.56 3013.02 2674.42 3013.16 2682.27 3013.4 2693.27 3021.16 2700.54 3032.16 2700.51 3043.16 2700.48 3050.85 2693.07 3050.95 2682.08 3051.09 2666.49 3050.95 2650.91 3051.05 2635.32 3051.05 2632.89 3050.24 2632.47 3048.05 2632.5 3037.45 2632.6 3026.85 2632.65 3016.26 2632.5 3013.46 2632.5 3013.02 2633.44 3013.07 2635.92 3013.25 2643.49 3013.16 2651.1 3013.16 2658.7ZM3040 2522.41 3039.06 2522.41C3039.06 2518.32 3040.46 2513.41 3038.69 2510.34 3036.63 2506.81 3031.29 2509.68 3027.46 2508.97 3027.34 2508.97 3027.21 2508.97 3027.09 2508.97 3025.46 2508.76 3024.98 2509.52 3024.93 2511.1 3024.71 2518.3 3024.43 2525.5 3024.02 2532.7 3023.91 2534.79 3024.7 2535.21 3026.57 2535.15 3030.16 2535.03 3033.77 2535.01 3037.36 2535.15 3039.43 2535.23 3040.21 2534.7 3040.06 2532.47 3039.88 2529.12 3040 2525.76 3040 2522.41Z" class="MsftOfcThm_Background1_Fill_v2" fill="#FFFFFF" transform="translate(-2696.33 -2497.16)"/><path d="M2954.59 2595.59C2954.49 2612.27 2940.88 2625.72 2924.2 2625.62 2907.52 2625.52 2894.07 2611.91 2894.17 2595.23 2894.27 2578.54 2907.88 2565.1 2924.56 2565.2 2924.57 2565.2 2924.58 2565.2 2924.59 2565.2 2941.22 2565.41 2954.59 2578.96 2954.59 2595.59ZM2924.31 2613.9C2934.53 2613.95 2942.85 2605.71 2942.9 2595.49 2942.95 2585.27 2934.71 2576.95 2924.49 2576.9 2914.27 2576.85 2905.95 2585.09 2905.9 2595.31 2905.9 2595.34 2905.9 2595.37 2905.9 2595.4 2905.84 2605.56 2914.04 2613.84 2924.2 2613.9 2924.24 2613.9 2924.27 2613.9 2924.31 2613.9Z" class="MsftOfcThm_Background1_Fill_v2" fill="#FFFFFF" transform="translate(-2696.33 -2497.16)"/></svg>